<svg width="356" height="356" viewBox="0 0 356 356" fill="none" xmlns="http://www.w3.org/2000/svg">
<path d="M251.032 15.7364C228.708 5.66088 204.013 0.0633545 177.935 0.0633545C165.687 0.0633545 153.767 1.31457 142.243 3.61943L177.935 177.999L251.032 15.7364Z" fill="#27AE60"/>
<path d="M142.243 3.61938C104.904 11.2584 71.8459 30.5534 46.9534 57.5532L177.935 177.999L142.243 3.61938Z" fill="#6FCF97"/>
<path d="M354.29 201.838C355.344 194.067 355.871 186.099 355.871 177.999C355.871 147.64 348.298 119.126 334.864 94.1018L177.935 177.999L354.29 201.838Z" fill="#9B51E0"/>
<path d="M46.9533 57.5532C22.2583 84.4213 5.72918 118.863 1.1853 156.992L177.87 177.999L46.9533 57.5532Z" fill="#EB5757"/>
<path d="M334.864 94.1018C316.359 59.5947 286.857 31.8705 251.032 15.7365L177.935 177.999L334.864 94.1018Z" fill="#BB6BD9"/>
<path d="M102.336 339.142C125.319 349.942 150.936 356 178.001 356C189.262 356 200.26 354.946 210.928 352.971L178.001 178.065L102.336 339.142Z" fill="#2F80ED"/>
<path d="M177.935 177.999L307.008 300.486C332.164 274.013 349.22 239.769 354.29 201.772L177.935 177.999Z" fill="#56CCF2"/>
<path d="M210.928 352.905C248.464 345.859 281.786 327.091 307.008 300.552L177.935 178.065L210.928 352.905Z" fill="#2D9CDB"/>
<path d="M1.25121 156.992C0.460972 163.906 0 170.887 0 177.999C0 209.345 8.09995 238.781 22.3242 264.332L177.935 177.999L1.25121 156.992Z" fill="#F2994A"/>
<path d="M22.3242 264.398C40.4339 296.93 68.4215 323.205 102.27 339.142L177.935 178.065L22.3242 264.398Z" fill="#F2C94C"/>
</svg>
